<?xml version='1.0' encoding='utf-8'?>
<svg xmlns="http://www.w3.org/2000/svg" version="1.1" data-diagram-type="DESCRIPTION" style="width:1159px;height:456px;background:#FFFFFF;" width="1159px" height="456px" viewBox="0 0 1159 456" zoomAndPan="magnify" preserveAspectRatio="none" contentStyleType="text/css">
  <defs />
  <g font-family="sans-serif" lengthAdjust="spacing">
    <g class="title" data-source-line="1">
      <text x="476.882" y="22.995" fill="#000" font-size="14" textLength="198.509" font-weight="700" font-family="DejaVu Sans">Runtime-view Productive</text>
    </g>
    <g class="entity" data-qualified-name="user" id="ent0001" data-source-line="3">
      <ellipse cx="388.555" cy="51.297" rx="8" ry="8" fill="#F1F1F1" style="stroke:#181818;stroke-width:0.5;" />
      <path d="M388.555,59.297 L388.555,86.297 M375.555,67.297 L401.555,67.297 M388.555,86.297 L375.555,101.297 M388.555,86.297 L401.555,101.297" style="stroke:#181818;stroke-width:0.5;" fill="none" />
      <text x="372.6" y="115.792" fill="#000" font-size="14" textLength="31.91" font-family="DejaVu Sans">User</text>
    </g>
    <g class="entity" data-qualified-name="UserNote" id="ent0002" data-source-line="5">
      <path d="M6,189.677 L6,214.81 A0,0 0 0 0 6,214.81 L419.107,214.81 A0,0 0 0 0 419.107,214.81 L419.107,199.677 L409.107,189.677 L234.32,189.677 L372.31,92.957 L226.32,189.677 L6,189.677 A0,0 0 0 0 6,189.677" style="stroke:#181818;stroke-width:0.5;" fill="#FEFFDD" />
      <path d="M409.107,189.677 L409.107,199.677 L419.107,199.677 L409.107,189.677" style="stroke:#181818;stroke-width:0.5;" fill="#FEFFDD" />
      <text x="12" y="206.744" fill="#000" font-size="13" textLength="131.879" font-family="DejaVu Sans">The user calls https:</text>
      <text x="143.879" y="206.744" fill="#000" font-size="13" textLength="152.293" font-style="italic" font-family="DejaVu Sans">&lt;domain&gt;:443 or http:</text>
      <text x="296.172" y="206.744" fill="#000" font-size="13" textLength="107.936" font-family="DejaVu Sans">&lt;domain&gt;:8080</text>
    </g>
    <g class="entity" data-qualified-name="ConSurv" id="ent0004" data-source-line="9">
      <rect x="453.85" y="179.097" width="221.412" height="46.297" fill="#F1F1F1" style="stroke:#181818;stroke-width:0.5;" rx="2.5" ry="2.5" />
      <rect x="655.262" y="184.097" width="15" height="10" fill="#F1F1F1" style="stroke:#181818;stroke-width:0.5;" />
      <rect x="653.262" y="186.097" width="4" height="2" fill="#F1F1F1" style="stroke:#181818;stroke-width:0.5;" />
      <rect x="653.262" y="190.097" width="4" height="2" fill="#F1F1F1" style="stroke:#181818;stroke-width:0.5;" />
      <text x="468.85" y="212.092" fill="#000" font-size="14" textLength="181.412" font-family="DejaVu Sans">ConSurv (:443 and :8080)</text>
    </g>
    <g class="entity" data-qualified-name="ConSurvNote" id="ent0005" data-source-line="11">
      <path d="M47.05,285.397 L47.05,340.795 A0,0 0 0 0 47.05,340.795 L638.057,340.795 A0,0 0 0 0 638.057,340.795 L638.057,295.397 L628.057,285.397 L401.92,285.397 L518.56,225.797 L393.92,285.397 L47.05,285.397 A0,0 0 0 0 47.05,285.397" style="stroke:#181818;stroke-width:0.5;" fill="#FEFFDD" />
      <path d="M628.057,285.397 L628.057,295.397 L638.057,295.397 L628.057,285.397" style="stroke:#181818;stroke-width:0.5;" fill="#FEFFDD" />
      <text x="53.05" y="302.464" fill="#000" font-size="13" textLength="327.799" font-family="DejaVu Sans">Started by container-engine (for example docker).</text>
      <text x="53.05" y="317.597" fill="#000" font-size="13" textLength="570.007" font-family="DejaVu Sans">The domain can be set using the commandline-parameter "--InitialDomain &lt;domain&gt;".</text>
      <text x="53.05" y="332.729" fill="#000" font-size="13" textLength="335.524" font-family="DejaVu Sans">Backend and frontend are running in the container.</text>
    </g>
    <g class="entity" data-qualified-name="ConSurvDatabase" id="ent0007" data-source-line="17">
      <rect x="673.51" y="289.947" width="226.088" height="46.297" fill="#F1F1F1" style="stroke:#181818;stroke-width:0.5;" rx="2.5" ry="2.5" />
      <rect x="879.598" y="294.947" width="15" height="10" fill="#F1F1F1" style="stroke:#181818;stroke-width:0.5;" />
      <rect x="877.598" y="296.947" width="4" height="2" fill="#F1F1F1" style="stroke:#181818;stroke-width:0.5;" />
      <rect x="877.598" y="300.947" width="4" height="2" fill="#F1F1F1" style="stroke:#181818;stroke-width:0.5;" />
      <text x="688.51" y="322.942" fill="#000" font-size="14" textLength="186.088" font-family="DejaVu Sans">Database (:5432 or :3306)</text>
    </g>
    <g class="entity" data-qualified-name="ConSurvDatabaseNote" id="ent0008" data-source-line="19">
      <path d="M428.84,400.787 L428.84,441.053 A0,0 0 0 0 428.84,441.053 L1144.274,441.053 A0,0 0 0 0 1144.274,441.053 L1144.274,410.787 L1134.274,400.787 L790.55,400.787 L786.55,336.537 L782.55,400.787 L428.84,400.787 A0,0 0 0 0 428.84,400.787" style="stroke:#181818;stroke-width:0.5;" fill="#FEFFDD" />
      <path d="M1134.274,400.787 L1134.274,410.787 L1144.274,410.787 L1134.274,400.787" style="stroke:#181818;stroke-width:0.5;" fill="#FEFFDD" />
      <text x="434.84" y="417.854" fill="#000" font-size="13" textLength="128.318" font-family="DejaVu Sans">Database-container</text>
      <text x="434.84" y="432.987" fill="#000" font-size="13" textLength="694.434" font-family="DejaVu Sans">Port can be changed of course but must be updated in the connection-string in the ConSurv-configuration.</text>
    </g>
    <g class="link" data-entity-1="ent0001" data-entity-2="ent0004" id="lnk10" data-source-line="24" data-link-type="dependency">
      <path d="M404.8,92.957 C433.47,112.397 489.471,150.351 527.231,175.951" style="stroke:#181818;stroke-width:1;" fill="none" id="user-to-ConSurv" />
      <polygon points="531.37,178.757,526.165,170.396,527.231,175.951,521.676,177.017,531.37,178.757" fill="#181818" style="stroke:#181818;stroke-width:1;stroke-linejoin:miter;stroke-miterlimit:10;" />
    </g>
    <g class="link" data-entity-1="ent0004" data-entity-2="ent0007" id="lnk11" data-source-line="25" data-link-type="dependency">
      <path d="M610.55,225.797 C648.65,244.477 698.041,268.696 736.121,287.366" style="stroke:#181818;stroke-width:1;" fill="none" id="ConSurv-to-ConSurvDatabase" />
      <polygon points="740.61,289.567,734.29,282.013,736.121,287.366,730.768,289.196,740.61,289.567" fill="#181818" style="stroke:#181818;stroke-width:1;stroke-linejoin:miter;stroke-miterlimit:10;" />
    </g>
  </g>
</svg>
